<svg xmlns="http://www.w3.org/2000/svg" xmlns:xlink="http://www.w3.org/1999/xlink"><defs>
<clipPath id="clip0_3_47">
<rect width="18" height="18" fill="white"/>
</clipPath>

<clipPath id="clip0_146_842">
<rect width="18" height="18" fill="white"/>
</clipPath>
</defs><symbol id="icon-calendar" viewBox="0 0 18 18"><g fill="none">
<path d="M14.5248 1.38619H13.8534V0.706821C13.8534 0.318658 13.5387 0.00400925 13.1506 0.00400925C12.7624 0.00400925 12.4477 0.318658 12.4477 0.706821V1.38619H5.55221V0.706821C5.55221 0.318658 5.23757 0.00400925 4.8494 0.00400925C4.46124 0.00400925 4.14659 0.318658 4.14659 0.706821V1.38619H3.47523C1.55898 1.38619 0 2.94517 0 4.86139V14.5208C0 16.437 1.55898 17.996 3.47523 17.996H14.5248C16.441 17.996 18 16.437 18 14.5208V4.86139C18 2.94517 16.441 1.38619 14.5248 1.38619ZM3.47523 2.79182H4.14659V4.1623C4.14659 4.55046 4.46124 4.86511 4.8494 4.86511C5.23757 4.86511 5.55221 4.55046 5.55221 4.1623V2.79182H12.4478V4.1623C12.4478 4.55046 12.7624 4.86511 13.1506 4.86511C13.5388 4.86511 13.8534 4.55046 13.8534 4.1623V2.79182H14.5248C15.666 2.79182 16.5944 3.72023 16.5944 4.86139V5.53278H1.40562V4.86139C1.40562 3.72023 2.33404 2.79182 3.47523 2.79182ZM14.5248 16.5904H3.47523C2.33404 16.5904 1.40562 15.6619 1.40562 14.5208V6.93841H16.5944V14.5208C16.5944 15.6619 15.666 16.5904 14.5248 16.5904ZM6.24333 9.70281C6.24333 10.091 5.92868 10.4056 5.54051 10.4056H4.15833C3.77016 10.4056 3.45552 10.091 3.45552 9.70281C3.45552 9.31465 3.77016 9 4.15833 9H5.54051C5.92864 9 6.24333 9.31465 6.24333 9.70281ZM14.5445 9.70281C14.5445 10.091 14.2299 10.4056 13.8417 10.4056H12.4595C12.0714 10.4056 11.7567 10.091 11.7567 9.70281C11.7567 9.31465 12.0714 9 12.4595 9H13.8417C14.2298 9 14.5445 9.31465 14.5445 9.70281ZM10.3899 9.70281C10.3899 10.091 10.0753 10.4056 9.6871 10.4056H8.30492C7.91676 10.4056 7.60211 10.091 7.60211 9.70281C7.60211 9.31465 7.91676 9 8.30492 9H9.6871C10.0752 9 10.3899 9.31465 10.3899 9.70281ZM6.24333 13.8494C6.24333 14.2376 5.92868 14.5522 5.54051 14.5522H4.15833C3.77016 14.5522 3.45552 14.2376 3.45552 13.8494C3.45552 13.4612 3.77016 13.1466 4.15833 13.1466H5.54051C5.92864 13.1466 6.24333 13.4612 6.24333 13.8494ZM14.5445 13.8494C14.5445 14.2376 14.2299 14.5522 13.8417 14.5522H12.4595C12.0714 14.5522 11.7567 14.2376 11.7567 13.8494C11.7567 13.4612 12.0714 13.1466 12.4595 13.1466H13.8417C14.2298 13.1466 14.5445 13.4612 14.5445 13.8494ZM10.3899 13.8494C10.3899 14.2376 10.0753 14.5522 9.6871 14.5522H8.30492C7.91676 14.5522 7.60211 14.2376 7.60211 13.8494C7.60211 13.4612 7.91676 13.1466 8.30492 13.1466H9.6871C10.0752 13.1466 10.3899 13.4612 10.3899 13.8494Z" fill="#757575"/>
</g></symbol><symbol id="icon-chart" viewBox="0 0 18 18"><g fill="none">
<path d="M17.25 16.5H1.5V0.75C1.5 0.551088 1.42098 0.360322 1.28033 0.21967C1.13968 0.0790176 0.948912 0 0.75 0C0.551088 0 0.360322 0.0790176 0.21967 0.21967C0.0790176 0.360322 0 0.551088 0 0.75L0 17.25C0 17.4489 0.0790176 17.6397 0.21967 17.7803C0.360322 17.921 0.551088 18 0.75 18H17.25C17.4489 18 17.6397 17.921 17.7803 17.7803C17.921 17.6397 18 17.4489 18 17.25C18 17.0511 17.921 16.8603 17.7803 16.7197C17.6397 16.579 17.4489 16.5 17.25 16.5Z" fill="#4CAF50"/>
<path d="M3 12.75V15C3 15.1989 3.07902 15.3897 3.21967 15.5303C3.36032 15.671 3.55109 15.75 3.75 15.75C3.94891 15.75 4.13967 15.671 4.28033 15.5303C4.42098 15.3897 4.5 15.1989 4.5 15V12.75C4.5 12.5511 4.42098 12.3603 4.28033 12.2197C4.13967 12.079 3.94891 12 3.75 12C3.55109 12 3.36032 12.079 3.21967 12.2197C3.07902 12.3603 3 12.5511 3 12.75V12.75Z" fill="#4CAF50"/>
<path d="M6.75 7.5V15C6.75 15.1989 6.82902 15.3897 6.96967 15.5303C7.11032 15.671 7.30109 15.75 7.5 15.75C7.69891 15.75 7.88967 15.671 8.03033 15.5303C8.17098 15.3897 8.25 15.1989 8.25 15V7.5C8.25 7.30109 8.17098 7.11032 8.03033 6.96967C7.88967 6.82902 7.69891 6.75 7.5 6.75C7.30109 6.75 7.11032 6.82902 6.96967 6.96967C6.82902 7.11032 6.75 7.30109 6.75 7.5Z" fill="#4CAF50"/>
<path d="M11.25 15.75C11.4489 15.75 11.6397 15.671 11.7803 15.5303C11.921 15.3897 12 15.1989 12 15V9C12 8.80109 11.921 8.61032 11.7803 8.46967C11.6397 8.32902 11.4489 8.25 11.25 8.25C11.0511 8.25 10.8603 8.32902 10.7197 8.46967C10.579 8.61032 10.5 8.80109 10.5 9V15C10.5 15.1989 10.579 15.3897 10.7197 15.5303C10.8603 15.671 11.0511 15.75 11.25 15.75Z" fill="#4CAF50"/>
<path d="M15.75 15V4.5C15.75 4.30109 15.671 4.11032 15.5303 3.96967C15.3897 3.82902 15.1989 3.75 15 3.75C14.8011 3.75 14.6103 3.82902 14.4697 3.96967C14.329 4.11032 14.25 4.30109 14.25 4.5V15C14.25 15.1989 14.329 15.3897 14.4697 15.5303C14.6103 15.671 14.8011 15.75 15 15.75C15.1989 15.75 15.3897 15.671 15.5303 15.5303C15.671 15.3897 15.75 15.1989 15.75 15Z" fill="#4CAF50"/>
</g></symbol><symbol id="icon-close" viewBox="0 0 18 18"><g fill="none">
<g clip-path="url(#clip0_3_47)">
<path d="M0.93511 18.0001C0.698006 18.0001 0.460901 17.9099 0.280756 17.7284C-0.0808901 17.3667 -0.0808901 16.7804 0.280756 16.4188L16.4283 0.271239C16.7899 -0.0904078 17.3762 -0.0904078 17.7379 0.271239C18.0995 0.632885 18.0995 1.2192 17.7379 1.58108L1.59059 17.7284C1.40909 17.9087 1.17199 18.0001 0.93511 18.0001Z" fill="#757579"/>
<path d="M17.0838 18.0001C16.8466 18.0001 16.6098 17.9099 16.4294 17.7284L0.280756 1.58108C-0.0808901 1.2192 -0.0808901 0.632885 0.280756 0.271239C0.642403 -0.0904078 1.22872 -0.0904078 1.59059 0.271239L17.7379 16.4188C18.0995 16.7804 18.0995 17.3667 17.7379 17.7284C17.5564 17.9087 17.3195 18.0001 17.0838 18.0001Z" fill="#757579"/>
</g>

</g></symbol><symbol id="icon-coins" viewBox="0 0 14 14"><g fill="none">
<path d="M4.95866 13.4167C5.65876 13.4209 6.35272 13.286 7.00033 13.02C7.64725 13.2883 8.34168 13.4232 9.042 13.4167C11.1682 13.4167 12.8337 12.2821 12.8337 10.8331V8.41694C12.8337 6.96793 11.1682 5.83335 9.042 5.83335C8.94341 5.83335 8.84658 5.83802 8.75033 5.84327V3.11093C8.75033 1.69168 7.08491 0.583344 4.95866 0.583344C2.83241 0.583344 1.16699 1.69168 1.16699 3.11093V10.8891C1.16699 12.3084 2.83241 13.4167 4.95866 13.4167ZM11.667 10.8331C11.667 11.5034 10.589 12.25 9.042 12.25C7.495 12.25 6.41699 11.5034 6.41699 10.8331V10.2935C7.20696 10.774 8.1176 11.019 9.042 10.9999C9.96639 11.019 10.877 10.774 11.667 10.2935V10.8331ZM9.042 7.00002C10.589 7.00002 11.667 7.74668 11.667 8.41694C11.667 9.08719 10.589 9.83327 9.042 9.83327C7.495 9.83327 6.41699 9.0866 6.41699 8.41694C6.41699 7.74727 7.495 7.00002 9.042 7.00002ZM4.95866 1.75001C6.50566 1.75001 7.58366 2.46751 7.58366 3.11093C7.58366 3.75435 6.50566 4.47243 4.95866 4.47243C3.41166 4.47243 2.33366 3.75493 2.33366 3.11093C2.33366 2.46693 3.41166 1.75001 4.95866 1.75001ZM2.33366 4.94785C3.12691 5.41894 4.03627 5.6584 4.95866 5.6391C5.88105 5.6584 6.79041 5.41894 7.58366 4.94785V6.02585C6.94792 6.18609 6.36489 6.50917 5.89199 6.96327C5.58529 7.02964 5.27246 7.06366 4.95866 7.06477C3.41166 7.06477 2.33366 6.34727 2.33366 5.70385V4.94785ZM2.33366 7.54077C3.12708 8.01139 4.03636 8.25063 4.95866 8.23144C5.06249 8.23144 5.16283 8.2186 5.26491 8.21335C5.25622 8.28088 5.25135 8.34885 5.25033 8.41694V9.63319C5.15233 9.63902 5.05783 9.65769 4.95866 9.65769C3.41166 9.65769 2.33366 8.94019 2.33366 8.29619V7.54077ZM2.33366 10.1331C3.12691 10.6042 4.03627 10.8437 4.95866 10.8244C5.05666 10.8244 5.15291 10.8168 5.25033 10.8121V10.8331C5.25868 11.3297 5.4495 11.8058 5.78641 12.1707C5.51348 12.2222 5.23641 12.2488 4.95866 12.25C3.41166 12.25 2.33366 11.5325 2.33366 10.8891V10.1331Z" fill="white"/>
</g></symbol><symbol id="icon-metro" viewBox="0 0 20 20"><g fill="none">
<path d="M13.242 2.24766L9.99989 12.4689L6.75798 2.24766C2.90144 3.57323 0 7.16914 0 11.2916C0 13.7746 1.01298 16.0644 2.65178 17.752H7.35212L7.84488 15.6151C2.22957 13.4149 3.29134 6.59717 5.32701 5.48429C5.56864 5.55695 9.10942 17.7017 9.10942 17.7017C9.15779 17.7017 9.31493 17.7017 9.50692 17.7017C9.54747 17.7017 9.70018 17.7017 9.89048 17.7017C9.95934 17.7017 10.0337 17.7017 10.1091 17.7017C10.2384 17.7017 10.3725 17.7017 10.4924 17.7017C10.6846 17.7017 10.8416 17.7017 10.8902 17.7017C10.8902 17.7017 14.4311 5.55695 14.6726 5.48429C16.7085 6.59717 17.7698 13.4149 12.1545 15.6151L12.6475 17.752H17.3478C18.9868 16.0644 19.9998 13.7746 19.9998 11.2916C19.9998 7.16914 17.0983 3.57323 13.242 2.24766Z" fill="#8EB3F5"/>
</g></symbol><symbol id="icon-view" viewBox="0 0 18 18"><g fill="none">
<g clip-path="url(#clip0_146_842)">
<path d="M17.8969 8.69829C16.3916 5.52928 12.9688 2.67188 8.96485 2.67188C4.45963 2.67188 1.22127 6.19616 0.0328217 8.69829C-0.0578156 8.88918 -0.0578156 9.11083 0.0328217 9.30172C1.53809 12.4707 4.96088 15.3281 8.96485 15.3281C13.4701 15.3281 16.7084 11.8037 17.8969 9.30172C17.9875 9.11083 17.9875 8.88918 17.8969 8.69829ZM8.96485 13.9219C5.72553 13.9219 3.03978 11.7871 1.46434 9.00001C3.03319 6.22431 5.71729 4.07813 8.96485 4.07813C12.2039 4.07813 14.8899 6.21263 16.4654 9.00001C14.8965 11.7756 12.2124 13.9219 8.96485 13.9219ZM8.96485 5.48438C7.02631 5.48438 5.44922 7.06147 5.44922 9.00001C5.44922 10.9385 7.02631 12.5156 8.96485 12.5156C10.9034 12.5156 12.4805 10.9385 12.4805 9.00001C12.4805 7.06147 10.9034 5.48438 8.96485 5.48438ZM8.96485 11.1094C7.80181 11.1094 6.85548 10.163 6.85548 9.00001C6.85548 7.83683 7.80181 6.89063 8.96485 6.89063C10.128 6.89063 11.0742 7.83683 11.0742 9.00001C11.0742 10.163 10.128 11.1094 8.96485 11.1094Z"/>
</g>

</g></symbol></svg>