<svg xmlns="http://www.w3.org/2000/svg" xmlns:xlink="http://www.w3.org/1999/xlink"><defs>
<clipPath id="clip0_3_47">
<rect width="18" height="18" fill="white"/>
</clipPath>

<clipPath id="clip0_55_371">
<rect width="16" height="16" fill="white"/>
</clipPath>

<clipPath id="clip0_55_281">
<rect width="28" height="28" fill="white"/>
</clipPath>

<clipPath id="clip0_55_385">
<rect width="16" height="16" fill="white"/>
</clipPath>

<clipPath id="clip0_89_1274">
<rect width="20" height="20" fill="white"/>
</clipPath>

<clipPath id="clip0_112_1634">
<rect width="14" height="14" fill="white" transform="translate(14) rotate(90)"/>
</clipPath>

<clipPath id="clip0_146_842">
<rect width="18" height="18" fill="white"/>
</clipPath>

<clipPath id="clip0_55_341">
<rect width="24" height="24" fill="white"/>
</clipPath>
</defs><symbol id="icon-calendar" viewBox="0 0 18 18"><g fill="none">
<path d="M14.5248 1.38619H13.8534V0.706821C13.8534 0.318658 13.5387 0.00400925 13.1506 0.00400925C12.7624 0.00400925 12.4477 0.318658 12.4477 0.706821V1.38619H5.55221V0.706821C5.55221 0.318658 5.23757 0.00400925 4.8494 0.00400925C4.46124 0.00400925 4.14659 0.318658 4.14659 0.706821V1.38619H3.47523C1.55898 1.38619 0 2.94517 0 4.86139V14.5208C0 16.437 1.55898 17.996 3.47523 17.996H14.5248C16.441 17.996 18 16.437 18 14.5208V4.86139C18 2.94517 16.441 1.38619 14.5248 1.38619ZM3.47523 2.79182H4.14659V4.1623C4.14659 4.55046 4.46124 4.86511 4.8494 4.86511C5.23757 4.86511 5.55221 4.55046 5.55221 4.1623V2.79182H12.4478V4.1623C12.4478 4.55046 12.7624 4.86511 13.1506 4.86511C13.5388 4.86511 13.8534 4.55046 13.8534 4.1623V2.79182H14.5248C15.666 2.79182 16.5944 3.72023 16.5944 4.86139V5.53278H1.40562V4.86139C1.40562 3.72023 2.33404 2.79182 3.47523 2.79182ZM14.5248 16.5904H3.47523C2.33404 16.5904 1.40562 15.6619 1.40562 14.5208V6.93841H16.5944V14.5208C16.5944 15.6619 15.666 16.5904 14.5248 16.5904ZM6.24333 9.70281C6.24333 10.091 5.92868 10.4056 5.54051 10.4056H4.15833C3.77016 10.4056 3.45552 10.091 3.45552 9.70281C3.45552 9.31465 3.77016 9 4.15833 9H5.54051C5.92864 9 6.24333 9.31465 6.24333 9.70281ZM14.5445 9.70281C14.5445 10.091 14.2299 10.4056 13.8417 10.4056H12.4595C12.0714 10.4056 11.7567 10.091 11.7567 9.70281C11.7567 9.31465 12.0714 9 12.4595 9H13.8417C14.2298 9 14.5445 9.31465 14.5445 9.70281ZM10.3899 9.70281C10.3899 10.091 10.0753 10.4056 9.6871 10.4056H8.30492C7.91676 10.4056 7.60211 10.091 7.60211 9.70281C7.60211 9.31465 7.91676 9 8.30492 9H9.6871C10.0752 9 10.3899 9.31465 10.3899 9.70281ZM6.24333 13.8494C6.24333 14.2376 5.92868 14.5522 5.54051 14.5522H4.15833C3.77016 14.5522 3.45552 14.2376 3.45552 13.8494C3.45552 13.4612 3.77016 13.1466 4.15833 13.1466H5.54051C5.92864 13.1466 6.24333 13.4612 6.24333 13.8494ZM14.5445 13.8494C14.5445 14.2376 14.2299 14.5522 13.8417 14.5522H12.4595C12.0714 14.5522 11.7567 14.2376 11.7567 13.8494C11.7567 13.4612 12.0714 13.1466 12.4595 13.1466H13.8417C14.2298 13.1466 14.5445 13.4612 14.5445 13.8494ZM10.3899 13.8494C10.3899 14.2376 10.0753 14.5522 9.6871 14.5522H8.30492C7.91676 14.5522 7.60211 14.2376 7.60211 13.8494C7.60211 13.4612 7.91676 13.1466 8.30492 13.1466H9.6871C10.0752 13.1466 10.3899 13.4612 10.3899 13.8494Z" fill="#757575"/>
</g></symbol><symbol id="icon-chart" viewBox="0 0 18 18"><g fill="none">
<path d="M17.25 16.5H1.5V0.75C1.5 0.551088 1.42098 0.360322 1.28033 0.21967C1.13968 0.0790176 0.948912 0 0.75 0C0.551088 0 0.360322 0.0790176 0.21967 0.21967C0.0790176 0.360322 0 0.551088 0 0.75L0 17.25C0 17.4489 0.0790176 17.6397 0.21967 17.7803C0.360322 17.921 0.551088 18 0.75 18H17.25C17.4489 18 17.6397 17.921 17.7803 17.7803C17.921 17.6397 18 17.4489 18 17.25C18 17.0511 17.921 16.8603 17.7803 16.7197C17.6397 16.579 17.4489 16.5 17.25 16.5Z" fill="#4CAF50"/>
<path d="M3 12.75V15C3 15.1989 3.07902 15.3897 3.21967 15.5303C3.36032 15.671 3.55109 15.75 3.75 15.75C3.94891 15.75 4.13967 15.671 4.28033 15.5303C4.42098 15.3897 4.5 15.1989 4.5 15V12.75C4.5 12.5511 4.42098 12.3603 4.28033 12.2197C4.13967 12.079 3.94891 12 3.75 12C3.55109 12 3.36032 12.079 3.21967 12.2197C3.07902 12.3603 3 12.5511 3 12.75V12.75Z" fill="#4CAF50"/>
<path d="M6.75 7.5V15C6.75 15.1989 6.82902 15.3897 6.96967 15.5303C7.11032 15.671 7.30109 15.75 7.5 15.75C7.69891 15.75 7.88967 15.671 8.03033 15.5303C8.17098 15.3897 8.25 15.1989 8.25 15V7.5C8.25 7.30109 8.17098 7.11032 8.03033 6.96967C7.88967 6.82902 7.69891 6.75 7.5 6.75C7.30109 6.75 7.11032 6.82902 6.96967 6.96967C6.82902 7.11032 6.75 7.30109 6.75 7.5Z" fill="#4CAF50"/>
<path d="M11.25 15.75C11.4489 15.75 11.6397 15.671 11.7803 15.5303C11.921 15.3897 12 15.1989 12 15V9C12 8.80109 11.921 8.61032 11.7803 8.46967C11.6397 8.32902 11.4489 8.25 11.25 8.25C11.0511 8.25 10.8603 8.32902 10.7197 8.46967C10.579 8.61032 10.5 8.80109 10.5 9V15C10.5 15.1989 10.579 15.3897 10.7197 15.5303C10.8603 15.671 11.0511 15.75 11.25 15.75Z" fill="#4CAF50"/>
<path d="M15.75 15V4.5C15.75 4.30109 15.671 4.11032 15.5303 3.96967C15.3897 3.82902 15.1989 3.75 15 3.75C14.8011 3.75 14.6103 3.82902 14.4697 3.96967C14.329 4.11032 14.25 4.30109 14.25 4.5V15C14.25 15.1989 14.329 15.3897 14.4697 15.5303C14.6103 15.671 14.8011 15.75 15 15.75C15.1989 15.75 15.3897 15.671 15.5303 15.5303C15.671 15.3897 15.75 15.1989 15.75 15Z" fill="#4CAF50"/>
</g></symbol><symbol id="icon-close" viewBox="0 0 18 18"><g fill="none">
<g clip-path="url(#clip0_3_47)">
<path d="M0.93511 18.0001C0.698006 18.0001 0.460901 17.9099 0.280756 17.7284C-0.0808901 17.3667 -0.0808901 16.7804 0.280756 16.4188L16.4283 0.271239C16.7899 -0.0904078 17.3762 -0.0904078 17.7379 0.271239C18.0995 0.632885 18.0995 1.2192 17.7379 1.58108L1.59059 17.7284C1.40909 17.9087 1.17199 18.0001 0.93511 18.0001Z" fill="#757579"/>
<path d="M17.0838 18.0001C16.8466 18.0001 16.6098 17.9099 16.4294 17.7284L0.280756 1.58108C-0.0808901 1.2192 -0.0808901 0.632885 0.280756 0.271239C0.642403 -0.0904078 1.22872 -0.0904078 1.59059 0.271239L17.7379 16.4188C18.0995 16.7804 18.0995 17.3667 17.7379 17.7284C17.5564 17.9087 17.3195 18.0001 17.0838 18.0001Z" fill="#757579"/>
</g>

</g></symbol><symbol id="icon-coins" viewBox="0 0 14 14"><g fill="none">
<path d="M4.95866 13.4167C5.65876 13.4209 6.35272 13.286 7.00033 13.02C7.64725 13.2883 8.34168 13.4232 9.042 13.4167C11.1682 13.4167 12.8337 12.2821 12.8337 10.8331V8.41694C12.8337 6.96793 11.1682 5.83335 9.042 5.83335C8.94341 5.83335 8.84658 5.83802 8.75033 5.84327V3.11093C8.75033 1.69168 7.08491 0.583344 4.95866 0.583344C2.83241 0.583344 1.16699 1.69168 1.16699 3.11093V10.8891C1.16699 12.3084 2.83241 13.4167 4.95866 13.4167ZM11.667 10.8331C11.667 11.5034 10.589 12.25 9.042 12.25C7.495 12.25 6.41699 11.5034 6.41699 10.8331V10.2935C7.20696 10.774 8.1176 11.019 9.042 10.9999C9.96639 11.019 10.877 10.774 11.667 10.2935V10.8331ZM9.042 7.00002C10.589 7.00002 11.667 7.74668 11.667 8.41694C11.667 9.08719 10.589 9.83327 9.042 9.83327C7.495 9.83327 6.41699 9.0866 6.41699 8.41694C6.41699 7.74727 7.495 7.00002 9.042 7.00002ZM4.95866 1.75001C6.50566 1.75001 7.58366 2.46751 7.58366 3.11093C7.58366 3.75435 6.50566 4.47243 4.95866 4.47243C3.41166 4.47243 2.33366 3.75493 2.33366 3.11093C2.33366 2.46693 3.41166 1.75001 4.95866 1.75001ZM2.33366 4.94785C3.12691 5.41894 4.03627 5.6584 4.95866 5.6391C5.88105 5.6584 6.79041 5.41894 7.58366 4.94785V6.02585C6.94792 6.18609 6.36489 6.50917 5.89199 6.96327C5.58529 7.02964 5.27246 7.06366 4.95866 7.06477C3.41166 7.06477 2.33366 6.34727 2.33366 5.70385V4.94785ZM2.33366 7.54077C3.12708 8.01139 4.03636 8.25063 4.95866 8.23144C5.06249 8.23144 5.16283 8.2186 5.26491 8.21335C5.25622 8.28088 5.25135 8.34885 5.25033 8.41694V9.63319C5.15233 9.63902 5.05783 9.65769 4.95866 9.65769C3.41166 9.65769 2.33366 8.94019 2.33366 8.29619V7.54077ZM2.33366 10.1331C3.12691 10.6042 4.03627 10.8437 4.95866 10.8244C5.05666 10.8244 5.15291 10.8168 5.25033 10.8121V10.8331C5.25868 11.3297 5.4495 11.8058 5.78641 12.1707C5.51348 12.2222 5.23641 12.2488 4.95866 12.25C3.41166 12.25 2.33366 11.5325 2.33366 10.8891V10.1331Z" fill="white"/>
</g></symbol><symbol id="icon-download" viewBox="0 0 16 16"><g fill="none">
<g clip-path="url(#clip0_55_371)">
<path d="M12.8058 8.70312L8 13.5089L3.19421 8.70312L4.07812 7.81921L7.375 11.1161V0H8.625V11.1161L11.9219 7.81921L12.8058 8.70312ZM16 14.75H0V16H16V14.75Z" fill="#757575"/>
</g>

</g></symbol><symbol id="icon-dropdown" viewBox="0 0 20 20"><g fill="none">
<path d="M19.2678 8.23232C20.2441 9.20863 20.2441 10.7916 19.2678 11.7679C18.2915 12.7442 16.7085 12.7442 15.7322 11.7679C14.7559 10.7916 14.7559 9.20863 15.7322 8.23232C16.7085 7.25601 18.2915 7.25601 19.2678 8.23232Z" fill="#BDBDBD"/>
<path d="M11.7678 8.23232C12.7441 9.20863 12.7441 10.7916 11.7678 11.7679C10.7915 12.7442 9.20854 12.7442 8.23223 11.7679C7.25592 10.7916 7.25592 9.20863 8.23223 8.23232C9.20854 7.25601 10.7915 7.25601 11.7678 8.23232Z" fill="#BDBDBD"/>
<path d="M4.26776 8.23232C5.24406 9.20863 5.24406 10.7916 4.26776 11.7679C3.29145 12.7442 1.70854 12.7442 0.73223 11.7679C-0.244077 10.7916 -0.244077 9.20863 0.73223 8.23232C1.70854 7.25601 3.29145 7.25601 4.26776 8.23232Z" fill="#BDBDBD"/>
</g></symbol><symbol id="icon-eye" viewBox="0 0 28 28"><g fill="none">
<g clip-path="url(#clip0_55_281)">
<path d="M27.8396 13.5308C25.4981 8.6012 20.1737 4.15634 13.9453 4.15634C6.9372 4.15634 1.89975 9.63855 0.051056 13.5308C-0.0899353 13.8277 -0.0899353 14.1725 0.051056 14.4694C2.39258 19.399 7.71693 23.8439 13.9453 23.8439C20.9535 23.8439 25.9909 18.3614 27.8396 14.4694C27.9806 14.1725 27.9806 13.8277 27.8396 13.5308ZM13.9453 21.6564C8.90638 21.6564 4.72855 18.3356 2.27786 14.0001C4.7183 9.68235 8.89356 6.34384 13.9453 6.34384C18.9838 6.34384 23.1621 9.66419 25.6128 14.0001C23.1724 18.3176 18.9971 21.6564 13.9453 21.6564ZM13.9453 8.53135C10.9298 8.53135 8.47657 10.9846 8.47657 14.0001C8.47657 17.0156 10.9298 19.4689 13.9453 19.4689C16.9608 19.4689 19.4141 17.0156 19.4141 14.0001C19.4141 10.9846 16.9608 8.53135 13.9453 8.53135ZM13.9453 17.2814C12.1362 17.2814 10.6641 15.8093 10.6641 14.0001C10.6641 12.1907 12.1362 10.7188 13.9453 10.7188C15.7547 10.7188 17.2266 12.1907 17.2266 14.0001C17.2266 15.8093 15.7547 17.2814 13.9453 17.2814Z" fill="#757575"/>
</g>

</g></symbol><symbol id="icon-metro" viewBox="0 0 20 20"><g fill="none">
<path d="M13.242 2.24766L9.99989 12.4689L6.75798 2.24766C2.90144 3.57323 0 7.16914 0 11.2916C0 13.7746 1.01298 16.0644 2.65178 17.752H7.35212L7.84488 15.6151C2.22957 13.4149 3.29134 6.59717 5.32701 5.48429C5.56864 5.55695 9.10942 17.7017 9.10942 17.7017C9.15779 17.7017 9.31493 17.7017 9.50692 17.7017C9.54747 17.7017 9.70018 17.7017 9.89048 17.7017C9.95934 17.7017 10.0337 17.7017 10.1091 17.7017C10.2384 17.7017 10.3725 17.7017 10.4924 17.7017C10.6846 17.7017 10.8416 17.7017 10.8902 17.7017C10.8902 17.7017 14.4311 5.55695 14.6726 5.48429C16.7085 6.59717 17.7698 13.4149 12.1545 15.6151L12.6475 17.752H17.3478C18.9868 16.0644 19.9998 13.7746 19.9998 11.2916C19.9998 7.16914 17.0983 3.57323 13.242 2.24766Z" fill="#8EB3F5"/>
</g></symbol><symbol id="icon-note" viewBox="0 0 16 16"><g fill="none">
<g clip-path="url(#clip0_55_385)">
<path d="M11.5 15.9987H1.83337C0.822021 15.9987 0 15.1766 0 14.1653V4.49866C0 3.4873 0.822021 2.66528 1.83337 2.66528H7.5C7.776 2.66528 8 2.88928 8 3.16528C8 3.44128 7.776 3.66528 7.5 3.66528H1.83337C1.37402 3.66528 1 4.03931 1 4.49866V14.1653C1 14.6246 1.37402 14.9987 1.83337 14.9987H11.5C11.9594 14.9987 12.3334 14.6246 12.3334 14.1653V8.49866C12.3334 8.22266 12.5574 7.99866 12.8334 7.99866C13.1094 7.99866 13.3334 8.22205 13.3334 8.49866V14.1653C13.3334 15.1766 12.5114 15.9987 11.5 15.9987Z" fill="#757575"/>
<path d="M5.848 10.6506C5.71666 10.6506 5.5886 10.5986 5.49461 10.504C5.37596 10.386 5.3253 10.2159 5.35801 10.0526L5.82933 7.69531C5.84861 7.59802 5.89659 7.50928 5.96592 7.43994L12.8707 0.536011C13.5853 -0.178711 14.748 -0.178711 15.4634 0.536011C15.8093 0.881958 16 1.34204 16 1.83203C16 2.32202 15.8093 2.78198 15.4626 3.12805L8.5587 10.0327C8.48937 10.1027 8.40001 10.15 8.30333 10.1693L5.94664 10.6406C5.91392 10.6473 5.8806 10.6506 5.848 10.6506ZM8.20531 9.67932H8.21202H8.20531ZM6.78001 8.04004L6.48594 9.51331L7.9586 9.21863L14.756 2.42139C14.9133 2.26331 15 2.05469 15 1.83203C15 1.60938 14.9133 1.40063 14.756 1.24268C14.432 0.917969 13.9033 0.917969 13.5774 1.24268L6.78001 8.04004Z" fill="#757575"/>
<path d="M14.1666 4.21802C14.0387 4.21802 13.9106 4.16931 13.8134 4.07129L11.928 2.1853C11.7327 1.98999 11.7327 1.67334 11.928 1.47803C12.1233 1.28271 12.4399 1.28271 12.6354 1.47803L14.5206 3.36401C14.7159 3.55933 14.7159 3.87598 14.5206 4.07129C14.4226 4.1687 14.2947 4.21802 14.1666 4.21802Z" fill="#757575"/>
</g>

</g></symbol><symbol id="icon-pdf" viewBox="0 0 20 20"><g fill="none">
<g clip-path="url(#clip0_89_1274)">
<path d="M14.375 10H11.875C11.5298 10 11.25 10.2798 11.25 10.625V15.625C11.25 15.9702 11.5298 16.25 11.875 16.25H14.375C15.0654 16.25 15.625 15.6904 15.625 15V11.25C15.625 10.5596 15.0654 10 14.375 10ZM14.375 15H12.5V11.25H14.375V15Z" fill="white"/>
<path d="M20 11.25V10H16.875C16.5298 10 16.25 10.2798 16.25 10.625V16.25H17.5V13.75H20V12.5H17.5V11.25H20Z" fill="white"/>
<path d="M1.25 18.1248V1.87477C1.25 1.52957 1.5298 1.24977 1.875 1.24977H11.25V3.74977C11.25 4.44012 11.8096 4.99977 12.5 4.99977H15V6.87477H16.25V4.37477C16.251 4.20863 16.1857 4.04895 16.0687 3.93102L12.3187 0.181016C12.2008 0.0640236 12.0411 -0.00117167 11.875 -0.000234168H1.875C0.839453 -0.000234168 0 0.839258 0 1.87477V18.1248C0 19.1603 0.839453 19.9998 1.875 19.9998H6.25V18.7498H1.875C1.52984 18.7498 1.25 18.47 1.25 18.1248Z" fill="white"/>
<path d="M9.375 10H6.875C6.5298 10 6.25 10.2798 6.25 10.625V16.25H7.5V14.375H9.375C10.0654 14.375 10.625 13.8154 10.625 13.125V11.25C10.625 10.5596 10.0654 10 9.375 10ZM9.375 13.125H7.5V11.25H9.375V13.125Z" fill="white"/>
</g>

</g></symbol><symbol id="icon-pdf_2" viewBox="0 0 31 12"><g fill="none">
<path d="M4.47769 6.248C4.87235 6.248 5.21635 6.2 5.50969 6.104C5.80302 6.00267 6.04569 5.86133 6.23769 5.68C6.43502 5.49333 6.58169 5.26933 6.67769 5.008C6.77369 4.74133 6.82169 4.44533 6.82169 4.12C6.82169 3.81067 6.77369 3.53067 6.67769 3.28C6.58169 3.02933 6.43769 2.816 6.24569 2.64C6.05369 2.464 5.81102 2.33067 5.51769 2.24C5.22435 2.144 4.87769 2.096 4.47769 2.096H2.86969V6.248H4.47769ZM4.47769 0.431999C5.25102 0.431999 5.92035 0.522666 6.48569 0.704C7.05102 0.885333 7.51769 1.13867 7.88569 1.464C8.25369 1.78933 8.52569 2.17867 8.70169 2.632C8.88302 3.08533 8.97369 3.58133 8.97369 4.12C8.97369 4.68 8.88035 5.19467 8.69369 5.664C8.50702 6.128 8.22702 6.528 7.85369 6.864C7.48035 7.2 7.01102 7.46133 6.44569 7.648C5.88569 7.83467 5.22969 7.928 4.47769 7.928H2.86969V12H0.717688V0.431999H4.47769ZM20.8959 6.216C20.8959 7.064 20.7546 7.84267 20.4719 8.552C20.1893 9.26133 19.7919 9.872 19.2799 10.384C18.7679 10.896 18.1519 11.2933 17.4319 11.576C16.7119 11.8587 15.9119 12 15.0319 12H10.6239V0.431999H15.0319C15.9119 0.431999 16.7119 0.575999 17.4319 0.863999C18.1519 1.14667 18.7679 1.544 19.2799 2.056C19.7919 2.56267 20.1893 3.17067 20.4719 3.88C20.7546 4.58933 20.8959 5.368 20.8959 6.216ZM18.6879 6.216C18.6879 5.58133 18.6026 5.01333 18.4319 4.512C18.2666 4.00533 18.0239 3.57867 17.7039 3.232C17.3893 2.88 17.0053 2.61067 16.5519 2.424C16.1039 2.23733 15.5973 2.144 15.0319 2.144H12.7839V10.288H15.0319C15.5973 10.288 16.1039 10.1947 16.5519 10.008C17.0053 9.82133 17.3893 9.55467 17.7039 9.208C18.0239 8.856 18.2666 8.42933 18.4319 7.928C18.6026 7.42133 18.6879 6.85067 18.6879 6.216ZM24.9558 2.144V5.568H29.2918V7.288H24.9558V12H22.7958V0.431999H30.0918V2.144H24.9558Z" fill="white"/>
</g></symbol><symbol id="icon-price-down" viewBox="0 0 14 14"><g fill="none">
<g clip-path="url(#clip0_112_1634)">
<path d="M7 13.7813L12.3457 8.48478L9.60312 8.48478L9.60312 3.97307L7 6.55158L4.38594 3.96213L4.38594 8.48478L1.6543 8.48478L7 13.7813Z" fill="#E3594E"/>
<path d="M1.65426 8.26328L4.16441 8.26328L4.16441 3.96211C4.16441 3.76797 4.39957 3.66954 4.53902 3.80626L6.99722 6.24258L9.44449 3.81719C9.58394 3.68048 9.8191 3.77891 9.8191 3.97305L9.8191 8.26328L12.3457 8.26328C12.5425 8.26328 12.641 8.50117 12.5015 8.64062L7.15582 13.9371C7.07105 14.0219 6.9316 14.0219 6.84683 13.9371L1.50113 8.64062C1.36168 8.5039 1.45738 8.26328 1.65426 8.26328V8.26328ZM4.60465 4.48985L4.60465 8.48476C4.60465 8.60507 4.50621 8.70625 4.38316 8.70625L2.18746 8.70625L6.99996 13.4695L11.8097 8.70351L9.60308 8.70351C9.48277 8.70351 9.3816 8.60508 9.3816 8.48203L9.3816 4.50352L7.15308 6.71016C7.06832 6.79492 6.92886 6.79492 6.8441 6.71016L4.60465 4.48985Z" fill="#C34B3F"/>
<path d="M4.23014 1.93868C4.31491 1.85118 4.45436 1.85118 4.54186 1.93595L7.00005 4.37501L9.44731 1.94962C9.53481 1.86485 9.67426 1.86485 9.75903 1.95235C9.84379 2.03985 9.84379 2.17931 9.7563 2.26407L7.15318 4.84259C7.06841 4.92735 6.92896 4.92735 6.84419 4.84259L4.23014 2.25313C4.14537 2.16563 4.14264 2.02618 4.23014 1.93868V1.93868Z" fill="#C34B3F"/>
<path d="M4.23014 0.0656349C4.31491 -0.0218651 4.45436 -0.0218651 4.54186 0.0629006L7.00005 2.49923L9.44731 0.0765727C9.53481 -0.00819297 9.67426 -0.00819296 9.75903 0.0793071C9.84379 0.166807 9.84379 0.30626 9.7563 0.391026L7.15318 2.96954C7.06841 3.05431 6.92896 3.05431 6.84419 2.96954L4.23014 0.380088C4.14537 0.289854 4.14264 0.153135 4.23014 0.0656349V0.0656349Z" fill="#C34B3F"/>
</g>

</g></symbol><symbol id="icon-view" viewBox="0 0 18 18"><g fill="none">
<g clip-path="url(#clip0_146_842)">
<path d="M17.8969 8.69829C16.3916 5.52928 12.9688 2.67188 8.96485 2.67188C4.45963 2.67188 1.22127 6.19616 0.0328217 8.69829C-0.0578156 8.88918 -0.0578156 9.11083 0.0328217 9.30172C1.53809 12.4707 4.96088 15.3281 8.96485 15.3281C13.4701 15.3281 16.7084 11.8037 17.8969 9.30172C17.9875 9.11083 17.9875 8.88918 17.8969 8.69829ZM8.96485 13.9219C5.72553 13.9219 3.03978 11.7871 1.46434 9.00001C3.03319 6.22431 5.71729 4.07813 8.96485 4.07813C12.2039 4.07813 14.8899 6.21263 16.4654 9.00001C14.8965 11.7756 12.2124 13.9219 8.96485 13.9219ZM8.96485 5.48438C7.02631 5.48438 5.44922 7.06147 5.44922 9.00001C5.44922 10.9385 7.02631 12.5156 8.96485 12.5156C10.9034 12.5156 12.4805 10.9385 12.4805 9.00001C12.4805 7.06147 10.9034 5.48438 8.96485 5.48438ZM8.96485 11.1094C7.80181 11.1094 6.85548 10.163 6.85548 9.00001C6.85548 7.83683 7.80181 6.89063 8.96485 6.89063C10.128 6.89063 11.0742 7.83683 11.0742 9.00001C11.0742 10.163 10.128 11.1094 8.96485 11.1094Z"/>
</g>

</g></symbol><symbol id="icon-vk" viewBox="0 0 24 24"><g fill="none">
<g clip-path="url(#clip0_55_341)">
<path d="M23.7859 17.3671C23.7214 17.2591 23.3223 16.392 21.4022 14.6099C19.3921 12.7438 19.6621 13.0468 22.0833 9.82005C23.5579 7.8549 24.1474 6.65482 23.9629 6.14178C23.7874 5.65274 22.7028 5.78175 22.7028 5.78175L19.0965 5.80275C19.0965 5.80275 18.8295 5.76675 18.63 5.88526C18.4365 6.00227 18.312 6.27229 18.312 6.27229C18.312 6.27229 17.7404 7.7934 16.9784 9.0865C15.3718 11.8152 14.7282 11.9592 14.4657 11.7897C13.8552 11.3952 14.0082 10.2026 14.0082 9.35652C14.0082 6.71182 14.4087 5.60924 13.2266 5.32422C12.8336 5.22971 12.5456 5.1667 11.542 5.1562C10.2549 5.1427 9.16431 5.1607 8.54777 5.46223C8.13674 5.66324 7.82022 6.11177 8.01373 6.13728C8.25225 6.16878 8.79229 6.28279 9.07881 6.67282C9.44934 7.17535 9.43583 8.30644 9.43583 8.30644C9.43583 8.30644 9.64885 11.4192 8.9393 11.8062C8.45176 12.0717 7.78421 11.5302 6.35161 9.05349C5.61806 7.7859 5.06302 6.3833 5.06302 6.3833C5.06302 6.3833 4.95651 6.12228 4.766 5.98277C4.53498 5.81325 4.21096 5.75925 4.21096 5.75925L0.781708 5.78025C0.781708 5.78025 0.267171 5.79525 0.0781574 6.01877C-0.0898547 6.21828 0.0646565 6.62931 0.0646565 6.62931C0.0646565 6.62931 2.74985 12.9103 5.78907 16.077C8.57777 18.9797 11.743 18.7892 11.743 18.7892H13.1771C13.1771 18.7892 13.6106 18.7412 13.8312 18.5027C14.0352 18.2837 14.0277 17.8727 14.0277 17.8727C14.0277 17.8727 13.9992 15.948 14.8932 15.6645C15.7738 15.3855 16.9049 17.5246 18.1035 18.3482C19.0095 18.9707 19.6981 18.8342 19.6981 18.8342L22.9038 18.7892C22.9038 18.7892 24.5809 18.6857 23.7859 17.3671Z" fill="white"/>
</g>

</g></symbol></svg>