<svg width="18" height="18" viewBox="0 0 18 18" fill="none" xmlns="http://www.w3.org/2000/svg">
<g clip-path="url(#clip0_146_842)">
<path d="M17.8969 8.69829C16.3916 5.52928 12.9688 2.67188 8.96485 2.67188C4.45963 2.67188 1.22127 6.19616 0.0328217 8.69829C-0.0578156 8.88918 -0.0578156 9.11083 0.0328217 9.30172C1.53809 12.4707 4.96088 15.3281 8.96485 15.3281C13.4701 15.3281 16.7084 11.8037 17.8969 9.30172C17.9875 9.11083 17.9875 8.88918 17.8969 8.69829ZM8.96485 13.9219C5.72553 13.9219 3.03978 11.7871 1.46434 9.00001C3.03319 6.22431 5.71729 4.07813 8.96485 4.07813C12.2039 4.07813 14.8899 6.21263 16.4654 9.00001C14.8965 11.7756 12.2124 13.9219 8.96485 13.9219ZM8.96485 5.48438C7.02631 5.48438 5.44922 7.06147 5.44922 9.00001C5.44922 10.9385 7.02631 12.5156 8.96485 12.5156C10.9034 12.5156 12.4805 10.9385 12.4805 9.00001C12.4805 7.06147 10.9034 5.48438 8.96485 5.48438ZM8.96485 11.1094C7.80181 11.1094 6.85548 10.163 6.85548 9.00001C6.85548 7.83683 7.80181 6.89063 8.96485 6.89063C10.128 6.89063 11.0742 7.83683 11.0742 9.00001C11.0742 10.163 10.128 11.1094 8.96485 11.1094Z"/>
</g>
<defs>
<clipPath id="clip0_146_842">
<rect width="18" height="18" fill="white"/>
</clipPath>
</defs>
</svg>
