<svg width="18" height="18" viewBox="0 0 18 18" fill="none" xmlns="http://www.w3.org/2000/svg">
<path d="M17.25 16.5H1.5V0.75C1.5 0.551088 1.42098 0.360322 1.28033 0.21967C1.13968 0.0790176 0.948912 0 0.75 0C0.551088 0 0.360322 0.0790176 0.21967 0.21967C0.0790176 0.360322 0 0.551088 0 0.75L0 17.25C0 17.4489 0.0790176 17.6397 0.21967 17.7803C0.360322 17.921 0.551088 18 0.75 18H17.25C17.4489 18 17.6397 17.921 17.7803 17.7803C17.921 17.6397 18 17.4489 18 17.25C18 17.0511 17.921 16.8603 17.7803 16.7197C17.6397 16.579 17.4489 16.5 17.25 16.5Z" fill="#4CAF50"/>
<path d="M3 12.75V15C3 15.1989 3.07902 15.3897 3.21967 15.5303C3.36032 15.671 3.55109 15.75 3.75 15.75C3.94891 15.75 4.13967 15.671 4.28033 15.5303C4.42098 15.3897 4.5 15.1989 4.5 15V12.75C4.5 12.5511 4.42098 12.3603 4.28033 12.2197C4.13967 12.079 3.94891 12 3.75 12C3.55109 12 3.36032 12.079 3.21967 12.2197C3.07902 12.3603 3 12.5511 3 12.75V12.75Z" fill="#4CAF50"/>
<path d="M6.75 7.5V15C6.75 15.1989 6.82902 15.3897 6.96967 15.5303C7.11032 15.671 7.30109 15.75 7.5 15.75C7.69891 15.75 7.88967 15.671 8.03033 15.5303C8.17098 15.3897 8.25 15.1989 8.25 15V7.5C8.25 7.30109 8.17098 7.11032 8.03033 6.96967C7.88967 6.82902 7.69891 6.75 7.5 6.75C7.30109 6.75 7.11032 6.82902 6.96967 6.96967C6.82902 7.11032 6.75 7.30109 6.75 7.5Z" fill="#4CAF50"/>
<path d="M11.25 15.75C11.4489 15.75 11.6397 15.671 11.7803 15.5303C11.921 15.3897 12 15.1989 12 15V9C12 8.80109 11.921 8.61032 11.7803 8.46967C11.6397 8.32902 11.4489 8.25 11.25 8.25C11.0511 8.25 10.8603 8.32902 10.7197 8.46967C10.579 8.61032 10.5 8.80109 10.5 9V15C10.5 15.1989 10.579 15.3897 10.7197 15.5303C10.8603 15.671 11.0511 15.75 11.25 15.75Z" fill="#4CAF50"/>
<path d="M15.75 15V4.5C15.75 4.30109 15.671 4.11032 15.5303 3.96967C15.3897 3.82902 15.1989 3.75 15 3.75C14.8011 3.75 14.6103 3.82902 14.4697 3.96967C14.329 4.11032 14.25 4.30109 14.25 4.5V15C14.25 15.1989 14.329 15.3897 14.4697 15.5303C14.6103 15.671 14.8011 15.75 15 15.75C15.1989 15.75 15.3897 15.671 15.5303 15.5303C15.671 15.3897 15.75 15.1989 15.75 15Z" fill="#4CAF50"/>
</svg>
