<svg width="16" height="16" viewBox="0 0 16 16" fill="none" xmlns="http://www.w3.org/2000/svg">
<g clip-path="url(#clip0_55_385)">
<path d="M11.5 15.9987H1.83337C0.822021 15.9987 0 15.1766 0 14.1653V4.49866C0 3.4873 0.822021 2.66528 1.83337 2.66528H7.5C7.776 2.66528 8 2.88928 8 3.16528C8 3.44128 7.776 3.66528 7.5 3.66528H1.83337C1.37402 3.66528 1 4.03931 1 4.49866V14.1653C1 14.6246 1.37402 14.9987 1.83337 14.9987H11.5C11.9594 14.9987 12.3334 14.6246 12.3334 14.1653V8.49866C12.3334 8.22266 12.5574 7.99866 12.8334 7.99866C13.1094 7.99866 13.3334 8.22205 13.3334 8.49866V14.1653C13.3334 15.1766 12.5114 15.9987 11.5 15.9987Z" fill="#757575"/>
<path d="M5.848 10.6506C5.71666 10.6506 5.5886 10.5986 5.49461 10.504C5.37596 10.386 5.3253 10.2159 5.35801 10.0526L5.82933 7.69531C5.84861 7.59802 5.89659 7.50928 5.96592 7.43994L12.8707 0.536011C13.5853 -0.178711 14.748 -0.178711 15.4634 0.536011C15.8093 0.881958 16 1.34204 16 1.83203C16 2.32202 15.8093 2.78198 15.4626 3.12805L8.5587 10.0327C8.48937 10.1027 8.40001 10.15 8.30333 10.1693L5.94664 10.6406C5.91392 10.6473 5.8806 10.6506 5.848 10.6506ZM8.20531 9.67932H8.21202H8.20531ZM6.78001 8.04004L6.48594 9.51331L7.9586 9.21863L14.756 2.42139C14.9133 2.26331 15 2.05469 15 1.83203C15 1.60938 14.9133 1.40063 14.756 1.24268C14.432 0.917969 13.9033 0.917969 13.5774 1.24268L6.78001 8.04004Z" fill="#757575"/>
<path d="M14.1666 4.21802C14.0387 4.21802 13.9106 4.16931 13.8134 4.07129L11.928 2.1853C11.7327 1.98999 11.7327 1.67334 11.928 1.47803C12.1233 1.28271 12.4399 1.28271 12.6354 1.47803L14.5206 3.36401C14.7159 3.55933 14.7159 3.87598 14.5206 4.07129C14.4226 4.1687 14.2947 4.21802 14.1666 4.21802Z" fill="#757575"/>
</g>
<defs>
<clipPath id="clip0_55_385">
<rect width="16" height="16" fill="white"/>
</clipPath>
</defs>
</svg>
