<svg width="14" height="14" viewBox="0 0 14 14" fill="none" xmlns="http://www.w3.org/2000/svg">
<g clip-path="url(#clip0_112_1634)">
<path d="M7 13.7813L12.3457 8.48478L9.60312 8.48478L9.60312 3.97307L7 6.55158L4.38594 3.96213L4.38594 8.48478L1.6543 8.48478L7 13.7813Z" fill="#E3594E"/>
<path d="M1.65426 8.26328L4.16441 8.26328L4.16441 3.96211C4.16441 3.76797 4.39957 3.66954 4.53902 3.80626L6.99722 6.24258L9.44449 3.81719C9.58394 3.68048 9.8191 3.77891 9.8191 3.97305L9.8191 8.26328L12.3457 8.26328C12.5425 8.26328 12.641 8.50117 12.5015 8.64062L7.15582 13.9371C7.07105 14.0219 6.9316 14.0219 6.84683 13.9371L1.50113 8.64062C1.36168 8.5039 1.45738 8.26328 1.65426 8.26328V8.26328ZM4.60465 4.48985L4.60465 8.48476C4.60465 8.60507 4.50621 8.70625 4.38316 8.70625L2.18746 8.70625L6.99996 13.4695L11.8097 8.70351L9.60308 8.70351C9.48277 8.70351 9.3816 8.60508 9.3816 8.48203L9.3816 4.50352L7.15308 6.71016C7.06832 6.79492 6.92886 6.79492 6.8441 6.71016L4.60465 4.48985Z" fill="#C34B3F"/>
<path d="M4.23014 1.93868C4.31491 1.85118 4.45436 1.85118 4.54186 1.93595L7.00005 4.37501L9.44731 1.94962C9.53481 1.86485 9.67426 1.86485 9.75903 1.95235C9.84379 2.03985 9.84379 2.17931 9.7563 2.26407L7.15318 4.84259C7.06841 4.92735 6.92896 4.92735 6.84419 4.84259L4.23014 2.25313C4.14537 2.16563 4.14264 2.02618 4.23014 1.93868V1.93868Z" fill="#C34B3F"/>
<path d="M4.23014 0.0656349C4.31491 -0.0218651 4.45436 -0.0218651 4.54186 0.0629006L7.00005 2.49923L9.44731 0.0765727C9.53481 -0.00819297 9.67426 -0.00819296 9.75903 0.0793071C9.84379 0.166807 9.84379 0.30626 9.7563 0.391026L7.15318 2.96954C7.06841 3.05431 6.92896 3.05431 6.84419 2.96954L4.23014 0.380088C4.14537 0.289854 4.14264 0.153135 4.23014 0.0656349V0.0656349Z" fill="#C34B3F"/>
</g>
<defs>
<clipPath id="clip0_112_1634">
<rect width="14" height="14" fill="white" transform="translate(14) rotate(90)"/>
</clipPath>
</defs>
</svg>
