<svg width="24" height="24" viewBox="0 0 24 24" fill="none" xmlns="http://www.w3.org/2000/svg">
<g clip-path="url(#clip0_55_341)">
<path d="M23.7859 17.3671C23.7214 17.2591 23.3223 16.392 21.4022 14.6099C19.3921 12.7438 19.6621 13.0468 22.0833 9.82005C23.5579 7.8549 24.1474 6.65482 23.9629 6.14178C23.7874 5.65274 22.7028 5.78175 22.7028 5.78175L19.0965 5.80275C19.0965 5.80275 18.8295 5.76675 18.63 5.88526C18.4365 6.00227 18.312 6.27229 18.312 6.27229C18.312 6.27229 17.7404 7.7934 16.9784 9.0865C15.3718 11.8152 14.7282 11.9592 14.4657 11.7897C13.8552 11.3952 14.0082 10.2026 14.0082 9.35652C14.0082 6.71182 14.4087 5.60924 13.2266 5.32422C12.8336 5.22971 12.5456 5.1667 11.542 5.1562C10.2549 5.1427 9.16431 5.1607 8.54777 5.46223C8.13674 5.66324 7.82022 6.11177 8.01373 6.13728C8.25225 6.16878 8.79229 6.28279 9.07881 6.67282C9.44934 7.17535 9.43583 8.30644 9.43583 8.30644C9.43583 8.30644 9.64885 11.4192 8.9393 11.8062C8.45176 12.0717 7.78421 11.5302 6.35161 9.05349C5.61806 7.7859 5.06302 6.3833 5.06302 6.3833C5.06302 6.3833 4.95651 6.12228 4.766 5.98277C4.53498 5.81325 4.21096 5.75925 4.21096 5.75925L0.781708 5.78025C0.781708 5.78025 0.267171 5.79525 0.0781574 6.01877C-0.0898547 6.21828 0.0646565 6.62931 0.0646565 6.62931C0.0646565 6.62931 2.74985 12.9103 5.78907 16.077C8.57777 18.9797 11.743 18.7892 11.743 18.7892H13.1771C13.1771 18.7892 13.6106 18.7412 13.8312 18.5027C14.0352 18.2837 14.0277 17.8727 14.0277 17.8727C14.0277 17.8727 13.9992 15.948 14.8932 15.6645C15.7738 15.3855 16.9049 17.5246 18.1035 18.3482C19.0095 18.9707 19.6981 18.8342 19.6981 18.8342L22.9038 18.7892C22.9038 18.7892 24.5809 18.6857 23.7859 17.3671Z" fill="white"/>
</g>
<defs>
<clipPath id="clip0_55_341">
<rect width="24" height="24" fill="white"/>
</clipPath>
</defs>
</svg>
