<svg width="28" height="28" viewBox="0 0 28 28" fill="none" xmlns="http://www.w3.org/2000/svg">
<g clip-path="url(#clip0_55_281)">
<path d="M27.8396 13.5308C25.4981 8.6012 20.1737 4.15634 13.9453 4.15634C6.9372 4.15634 1.89975 9.63855 0.051056 13.5308C-0.0899353 13.8277 -0.0899353 14.1725 0.051056 14.4694C2.39258 19.399 7.71693 23.8439 13.9453 23.8439C20.9535 23.8439 25.9909 18.3614 27.8396 14.4694C27.9806 14.1725 27.9806 13.8277 27.8396 13.5308ZM13.9453 21.6564C8.90638 21.6564 4.72855 18.3356 2.27786 14.0001C4.7183 9.68235 8.89356 6.34384 13.9453 6.34384C18.9838 6.34384 23.1621 9.66419 25.6128 14.0001C23.1724 18.3176 18.9971 21.6564 13.9453 21.6564ZM13.9453 8.53135C10.9298 8.53135 8.47657 10.9846 8.47657 14.0001C8.47657 17.0156 10.9298 19.4689 13.9453 19.4689C16.9608 19.4689 19.4141 17.0156 19.4141 14.0001C19.4141 10.9846 16.9608 8.53135 13.9453 8.53135ZM13.9453 17.2814C12.1362 17.2814 10.6641 15.8093 10.6641 14.0001C10.6641 12.1907 12.1362 10.7188 13.9453 10.7188C15.7547 10.7188 17.2266 12.1907 17.2266 14.0001C17.2266 15.8093 15.7547 17.2814 13.9453 17.2814Z" fill="#757575"/>
</g>
<defs>
<clipPath id="clip0_55_281">
<rect width="28" height="28" fill="white"/>
</clipPath>
</defs>
</svg>
