<svg width="20" height="20" viewBox="0 0 20 20" fill="none" xmlns="http://www.w3.org/2000/svg">
<path d="M19.2678 8.23232C20.2441 9.20863 20.2441 10.7916 19.2678 11.7679C18.2915 12.7442 16.7085 12.7442 15.7322 11.7679C14.7559 10.7916 14.7559 9.20863 15.7322 8.23232C16.7085 7.25601 18.2915 7.25601 19.2678 8.23232Z" fill="#BDBDBD"/>
<path d="M11.7678 8.23232C12.7441 9.20863 12.7441 10.7916 11.7678 11.7679C10.7915 12.7442 9.20854 12.7442 8.23223 11.7679C7.25592 10.7916 7.25592 9.20863 8.23223 8.23232C9.20854 7.25601 10.7915 7.25601 11.7678 8.23232Z" fill="#BDBDBD"/>
<path d="M4.26776 8.23232C5.24406 9.20863 5.24406 10.7916 4.26776 11.7679C3.29145 12.7442 1.70854 12.7442 0.73223 11.7679C-0.244077 10.7916 -0.244077 9.20863 0.73223 8.23232C1.70854 7.25601 3.29145 7.25601 4.26776 8.23232Z" fill="#BDBDBD"/>
</svg>
