<svg width="18" height="18" viewBox="0 0 18 18" fill="none" xmlns="http://www.w3.org/2000/svg">
<g clip-path="url(#clip0_3_47)">
<path d="M0.93511 18.0001C0.698006 18.0001 0.460901 17.9099 0.280756 17.7284C-0.0808901 17.3667 -0.0808901 16.7804 0.280756 16.4188L16.4283 0.271239C16.7899 -0.0904078 17.3762 -0.0904078 17.7379 0.271239C18.0995 0.632885 18.0995 1.2192 17.7379 1.58108L1.59059 17.7284C1.40909 17.9087 1.17199 18.0001 0.93511 18.0001Z" fill="#757579"/>
<path d="M17.0838 18.0001C16.8466 18.0001 16.6098 17.9099 16.4294 17.7284L0.280756 1.58108C-0.0808901 1.2192 -0.0808901 0.632885 0.280756 0.271239C0.642403 -0.0904078 1.22872 -0.0904078 1.59059 0.271239L17.7379 16.4188C18.0995 16.7804 18.0995 17.3667 17.7379 17.7284C17.5564 17.9087 17.3195 18.0001 17.0838 18.0001Z" fill="#757579"/>
</g>
<defs>
<clipPath id="clip0_3_47">
<rect width="18" height="18" fill="white"/>
</clipPath>
</defs>
</svg>
