<svg width="31" height="12" viewBox="0 0 31 12" fill="none" xmlns="http://www.w3.org/2000/svg">
<path d="M4.47769 6.248C4.87235 6.248 5.21635 6.2 5.50969 6.104C5.80302 6.00267 6.04569 5.86133 6.23769 5.68C6.43502 5.49333 6.58169 5.26933 6.67769 5.008C6.77369 4.74133 6.82169 4.44533 6.82169 4.12C6.82169 3.81067 6.77369 3.53067 6.67769 3.28C6.58169 3.02933 6.43769 2.816 6.24569 2.64C6.05369 2.464 5.81102 2.33067 5.51769 2.24C5.22435 2.144 4.87769 2.096 4.47769 2.096H2.86969V6.248H4.47769ZM4.47769 0.431999C5.25102 0.431999 5.92035 0.522666 6.48569 0.704C7.05102 0.885333 7.51769 1.13867 7.88569 1.464C8.25369 1.78933 8.52569 2.17867 8.70169 2.632C8.88302 3.08533 8.97369 3.58133 8.97369 4.12C8.97369 4.68 8.88035 5.19467 8.69369 5.664C8.50702 6.128 8.22702 6.528 7.85369 6.864C7.48035 7.2 7.01102 7.46133 6.44569 7.648C5.88569 7.83467 5.22969 7.928 4.47769 7.928H2.86969V12H0.717688V0.431999H4.47769ZM20.8959 6.216C20.8959 7.064 20.7546 7.84267 20.4719 8.552C20.1893 9.26133 19.7919 9.872 19.2799 10.384C18.7679 10.896 18.1519 11.2933 17.4319 11.576C16.7119 11.8587 15.9119 12 15.0319 12H10.6239V0.431999H15.0319C15.9119 0.431999 16.7119 0.575999 17.4319 0.863999C18.1519 1.14667 18.7679 1.544 19.2799 2.056C19.7919 2.56267 20.1893 3.17067 20.4719 3.88C20.7546 4.58933 20.8959 5.368 20.8959 6.216ZM18.6879 6.216C18.6879 5.58133 18.6026 5.01333 18.4319 4.512C18.2666 4.00533 18.0239 3.57867 17.7039 3.232C17.3893 2.88 17.0053 2.61067 16.5519 2.424C16.1039 2.23733 15.5973 2.144 15.0319 2.144H12.7839V10.288H15.0319C15.5973 10.288 16.1039 10.1947 16.5519 10.008C17.0053 9.82133 17.3893 9.55467 17.7039 9.208C18.0239 8.856 18.2666 8.42933 18.4319 7.928C18.6026 7.42133 18.6879 6.85067 18.6879 6.216ZM24.9558 2.144V5.568H29.2918V7.288H24.9558V12H22.7958V0.431999H30.0918V2.144H24.9558Z" fill="white"/>
</svg>
